<svg width="163" height="20" viewBox="0 0 163 20" fill="none" xmlns="http://www.w3.org/2000/svg">
<g id="Creator Cloud">
<path d="M9.05268 19.1274C3.50144 19.1274 0.25 15.1529 0.25 10.073C0.25 4.99298 3.50144 1.01848 9.05268 1.01848C12.8857 1.01848 15.6349 2.93992 16.983 6.04582L13.758 8.6253C13.2293 6.41432 11.7226 4.62448 9.02624 4.62448C5.93341 4.62448 4.32091 6.86178 4.32091 10.073C4.32091 13.2841 5.93341 15.5214 9.02624 15.5214C11.7226 15.5214 13.2293 13.7316 13.758 11.5206L16.983 14.1001C15.6349 17.206 12.8857 19.1274 9.05268 19.1274Z" fill="white"/>
<path d="M22.2586 18.9169H18.4784V6.0195H22.2586V10.073C22.6815 7.91463 23.9504 5.75629 26.4352 5.75629C28.3385 5.75629 29.3959 6.96706 29.3959 8.99379C29.3959 10.3888 28.9729 11.4943 28.6557 11.9944H25.0077C25.4836 11.5206 25.9329 10.5994 25.9329 9.86239C25.9329 9.1254 25.5893 8.57265 24.7698 8.57265C23.4745 8.57265 22.2586 9.96768 22.2586 12.0997V18.9169Z" fill="white"/>
<path d="M36.5555 19.1801C32.4317 19.1801 29.9204 16.4427 29.9204 12.4682C29.9204 8.49369 32.4317 5.75629 36.2383 5.75629C40.362 5.75629 42.4239 8.49369 42.4239 11.8628C42.4239 12.4155 42.371 13.1525 42.2917 13.4421H33.4626C33.7005 15.2582 34.9165 16.1268 36.6083 16.1268C38.4323 16.1268 39.4104 15.3372 39.8862 14.2317L42.186 16.5216C41.2079 17.9167 39.4633 19.1801 36.5555 19.1801ZM36.2647 8.65162C34.6522 8.65162 33.6477 9.54654 33.4626 11.2837H39.0139C38.8817 9.57286 37.9565 8.65162 36.2647 8.65162Z" fill="white"/>
<path d="M47.1346 19.2064C45.1256 19.2064 43.7246 18.1272 43.7246 16.0479C43.7246 14.1001 44.967 12.9683 47.4254 12.126L51.3906 10.652C51.2584 9.57286 50.7561 8.96747 49.3287 8.96747C47.6897 8.96747 46.183 9.88871 45.2842 11.1784L43.3809 8.44105C44.6762 7.04603 46.8174 5.75629 49.593 5.75629C52.8709 5.75629 54.7742 7.49349 54.7742 10.731V15.1529C54.7742 15.732 54.9857 15.9163 55.4615 15.9163H56.2281V18.9169H54.0076C52.6066 18.9169 51.3377 18.2852 51.3377 16.4427V15.5741C50.9148 17.2586 49.7781 19.2064 47.1346 19.2064ZM47.2139 15.4951C47.2139 16.1005 47.6369 16.4427 48.5357 16.4427C50.3332 16.4427 51.3377 15.5478 51.3377 13.9685V13.0736L48.5885 14.2054C47.5576 14.6265 47.2139 14.995 47.2139 15.4951Z" fill="white"/>
<path d="M62.5686 19.1801C59.7137 19.1801 58.3656 17.4955 58.3656 15.1003V8.88851H56.4358V6.0195H58.3656V4.49287L62.1457 2.51878V6.0195H65.7408V8.88851H62.1457V14.416C62.1457 15.4688 62.6744 15.8373 63.4145 15.8373C64.234 15.8373 64.9477 15.1793 65.3443 14.4686L66.4281 17.5482C65.8729 18.2588 64.5512 19.1801 62.5686 19.1801Z" fill="white"/>
<path d="M72.9045 19.1801C68.9658 19.1801 66.4281 16.4164 66.4281 12.4682C66.4281 8.54633 68.9658 5.75629 72.9045 5.75629C76.949 5.75629 79.5131 8.54633 79.5131 12.4682C79.5131 16.4164 76.949 19.1801 72.9045 19.1801ZM72.9574 16.1268C74.5699 16.1268 75.6801 15.1003 75.6801 12.4682C75.6801 9.80975 74.5699 8.80955 72.9574 8.80955C71.3713 8.80955 70.2611 9.80975 70.2611 12.4682C70.2611 15.1003 71.3713 16.1268 72.9574 16.1268Z" fill="white"/>
<path d="M85.1127 18.9169H81.3326V6.0195H85.1127V10.073C85.5356 7.91463 86.8045 5.75629 89.2893 5.75629C91.1926 5.75629 92.25 6.96706 92.25 8.99379C92.25 10.3888 91.827 11.4943 91.5098 11.9944H87.8619C88.3377 11.5206 88.7871 10.5994 88.7871 9.86239C88.7871 9.1254 88.4434 8.57265 87.624 8.57265C86.3287 8.57265 85.1127 9.96768 85.1127 12.0997V18.9169Z" fill="white"/>
<path d="M106.053 18.9025C100.501 18.9025 97.25 14.928 97.25 9.84806C97.25 4.76807 100.501 0.793579 106.053 0.793579C109.886 0.793579 112.635 2.71502 113.983 5.82092L110.758 8.40039C110.229 6.18942 108.723 4.39958 106.026 4.39958C102.933 4.39958 101.321 6.63688 101.321 9.84806C101.321 13.0592 102.933 15.2965 106.026 15.2965C108.723 15.2965 110.229 13.5067 110.758 11.2957L113.983 13.8752C112.635 16.9811 109.886 18.9025 106.053 18.9025Z" fill="white"/>
<path d="M119.201 18.692H115.421V1.05679H119.201V18.692Z" fill="white"/>
<path d="M127.426 18.9552C123.487 18.9552 120.949 16.1915 120.949 12.2433C120.949 8.32143 123.487 5.53139 127.426 5.53139C131.47 5.53139 134.034 8.32143 134.034 12.2433C134.034 16.1915 131.47 18.9552 127.426 18.9552ZM127.478 15.9019C129.091 15.9019 130.201 14.8754 130.201 12.2433C130.201 9.58485 129.091 8.58464 127.478 8.58464C125.892 8.58464 124.782 9.58485 124.782 12.2433C124.782 14.8754 125.892 15.9019 127.478 15.9019Z" fill="white"/>
<path d="M139.766 18.9552C137.308 18.9552 135.774 17.4549 135.774 14.7964V5.7946H139.554V13.4804C139.554 15.0596 139.977 16.0335 141.722 16.0335C143.52 16.0335 144.075 15.0333 144.075 12.9276V5.7946H147.855V18.692H144.075V15.086C143.625 17.139 142.383 18.9552 139.766 18.9552Z" fill="white"/>
<path d="M154.641 18.9815C151.496 18.9815 149.513 16.5336 149.513 12.2433C149.513 7.97926 151.496 5.53139 154.483 5.53139C157.179 5.53139 158.237 7.40019 158.607 9.47956V1.05679H162.387V18.692H158.607V15.0596C158.263 17.139 157.338 18.9815 154.641 18.9815ZM153.346 12.2433C153.346 14.7175 154.43 16.0335 156.148 16.0335C157.734 16.0335 158.607 15.0596 158.607 12.954V11.5589C158.607 9.45324 157.708 8.45304 156.095 8.45304C154.43 8.45304 153.346 9.79542 153.346 12.2433Z" fill="white"/>
</g>
</svg>
