<svg width="25" height="24" viewBox="0 0 25 24" fill="none" xmlns="http://www.w3.org/2000/svg">
<g id="Frame">
<g id="Group">
<path id="Vector" d="M2.25 14C2.25 10.229 2.25 8.343 3.422 7.172C4.593 6 6.479 6 10.25 6H14.25C18.021 6 19.907 6 21.078 7.172C22.25 8.343 22.25 10.229 22.25 14C22.25 17.771 22.25 19.657 21.078 20.828C19.907 22 18.021 22 14.25 22H10.25C6.479 22 4.593 22 3.422 20.828C2.25 19.657 2.25 17.771 2.25 14Z" stroke="white" stroke-width="1.5"/>
<path id="Vector_2" opacity="0.5" d="M16.25 6C16.25 4.114 16.25 3.172 15.664 2.586C15.078 2 14.136 2 12.25 2C10.364 2 9.422 2 8.836 2.586C8.25 3.172 8.25 4.114 8.25 6" stroke="white" stroke-width="1.5"/>
<path id="Vector_3" opacity="0.5" d="M12.25 17.3329C13.355 17.3329 14.25 16.5869 14.25 15.6669C14.25 14.7469 13.355 13.9999 12.25 13.9999C11.145 13.9999 10.25 13.2539 10.25 12.3329C10.25 11.4129 11.145 10.6669 12.25 10.6669M12.25 17.3329C11.145 17.3329 10.25 16.5869 10.25 15.6669M12.25 17.3329V17.9999M12.25 10.6669V9.99994M12.25 10.6669C13.355 10.6669 14.25 11.4129 14.25 12.3329" stroke="white" stroke-width="1.5" stroke-linecap="round"/>
</g>
</g>
</svg>
