<svg width="22" height="22" viewBox="0 0 22 22" fill="none" xmlns="http://www.w3.org/2000/svg">
<g id="Group">
<path id="Vector" opacity="0.5" d="M1.25 11C1.25 6.286 1.25 3.929 2.714 2.464C4.18 1 6.536 1 11.25 1C15.964 1 18.321 1 19.785 2.464C21.25 3.93 21.25 6.286 21.25 11C21.25 15.714 21.25 18.071 19.785 19.535C18.322 21 15.964 21 11.25 21C6.536 21 4.179 21 2.714 19.535C1.25 18.072 1.25 15.714 1.25 11Z" stroke="white" stroke-opacity="0.8" stroke-width="1.5"/>
<path id="Vector_2" d="M6.25 17V8M11.25 17V5M16.25 17V12" stroke="white" stroke-opacity="0.8" stroke-width="1.5" stroke-linecap="round"/>
</g>
</svg>
