<svg width="25" height="24" viewBox="0 0 25 24" fill="none" xmlns="http://www.w3.org/2000/svg">
<g id="Frame">
<g id="Group">
<path id="Vector" d="M10.33 7.89697C11.407 5.96597 11.945 4.99997 12.75 4.99997C13.555 4.99997 14.093 5.96597 15.17 7.89697L15.448 8.39697C15.754 8.94597 15.908 9.21997 16.146 9.40097C16.384 9.58197 16.681 9.64897 17.276 9.78397L17.816 9.90597C19.907 10.379 20.953 10.616 21.201 11.416C21.45 12.216 20.737 13.049 19.311 14.716L18.943 15.146C18.538 15.62 18.336 15.857 18.244 16.15C18.154 16.443 18.184 16.759 18.245 17.39L18.301 17.966C18.517 20.19 18.624 21.302 17.973 21.796C17.322 22.291 16.343 21.84 14.386 20.939L13.879 20.705C13.323 20.449 13.045 20.321 12.75 20.321C12.455 20.321 12.177 20.449 11.62 20.705L11.114 20.939C9.157 21.839 8.178 22.291 7.527 21.796C6.876 21.302 6.984 20.19 7.199 17.966L7.255 17.391C7.316 16.759 7.347 16.443 7.255 16.151C7.165 15.857 6.962 15.621 6.557 15.147L6.188 14.715C4.763 13.049 4.05 12.215 4.298 11.415C4.548 10.615 5.593 10.379 7.684 9.90597L8.224 9.78397C8.819 9.64897 9.116 9.58197 9.354 9.40097C9.593 9.22097 9.746 8.94597 10.052 8.39697L10.33 7.89697Z" stroke="white" stroke-opacity="0.8" stroke-width="1.5"/>
<path id="Vector_2" opacity="0.55" d="M5.24 2C5.24 2 5.528 3.458 6.16 4.085C6.79 4.712 8.25 4.99 8.25 4.99C8.25 4.99 6.792 5.278 6.165 5.91C5.538 6.54 5.26 8 5.26 8C5.26 8 4.972 6.542 4.34 5.915C3.71 5.288 2.25 5.01 2.25 5.01C2.25 5.01 3.708 4.722 4.335 4.09C4.962 3.46 5.24 2 5.24 2Z" stroke="white" stroke-opacity="0.8" stroke-linejoin="round"/>
<path id="Vector_3" opacity="0.55" d="M18.25 4.99994H20.25M19.25 5.99994V3.99994" stroke="white" stroke-opacity="0.8" stroke-width="1.5" stroke-linecap="round"/>
</g>
</g>
</svg>
